<?xml version="1.0" encoding="utf-8"?>
<!-- Svg Vector Icons : http://www.onlinewebfonts.com/icon -->
<!DOCTYPE svg PUBLIC "-//W3C//DTD SVG 1.1//EN" "http://www.w3.org/Graphics/SVG/1.1/DTD/svg11.dtd">
<svg version="1.1" xmlns="http://www.w3.org/2000/svg" xmlns:xlink="http://www.w3.org/1999/xlink" x="0px" y="0px" viewBox="0 0 256 256" enable-background="new 0 0 256 256" xml:space="preserve">
<metadata> Svg Vector Icons : http://www.onlinewebfonts.com/icon </metadata>
<g><g><path fill="#000000" d="M150.6,40.1h15.1v15.1h-15.1V40.1z M180.7,40.1h15.1v15.1h-15.1V40.1z M150.6,70.2h15.1v15.1h-15.1V70.2z M180.7,70.2h15.1v15.1h-15.1V70.2z M150.6,100.3h15.1v15.1h-15.1V100.3z M180.7,100.3h15.1v15.1h-15.1V100.3z M150.6,130.4h15.1v15h-15.1V130.4z M180.7,130.4h15.1v15h-15.1V130.4z M150.6,160.5h15.1v15.1h-15.1V160.5z M180.7,160.5h15.1v15.1h-15.1V160.5z M210.8,10h-75.3c-8.3,0-15.1,6.7-15.1,15.1v45.2H45.2c-8.3,0-15.1,6.7-15.1,15.1v150.5c0,8.3,6.7,10.2,15.1,10.2h165.6c8.3,0,15.1-1.9,15.1-10.2V25.1C225.8,16.7,219.1,10,210.8,10z M95.5,235.8H70.2v-35.7h25.3V235.8z M105.4,235.8v-30.1v-15.1H90.4H75.3H60.3v15.1v30.1H40.9V81.4h79.6v154.4H105.4z M185.8,235.8h-25.3v-36h25.3V235.8z M215.6,235.8h-19.9v-30.1v-15.1h-15.1h-15.1h-15.1v45.2h-19.9V85.3V21h85L215.6,235.8L215.6,235.8z M60.3,100.3h15.1v15.1H60.3V100.3z M90.4,100.3h15.1v15.1H90.4V100.3z M60.3,130.4h15.1v15H60.3V130.4z M90.4,130.4h15.1v15H90.4V130.4z M60.3,160.5h15.1v15.1H60.3V160.5z M90.4,160.5h15.1v15.1H90.4V160.5z"/></g></g>
</svg>